<svg xmlns="http://www.w3.org/2000/svg" width="67.566" height="117.094" viewBox="236.235 82.906 67.566 117.094"><g data-name="lightning"><path d="m261.532 199.386 41.957-77.768c.95-1.76-.398-3.927-2.272-3.653l-27.909 4.084 6.669-37.686c.224-1.27-1.297-1.998-2.023-.967l-41.252 58.617c-1.202 1.708.07 4.135 2.05 3.911l30.768-3.486-10.087 56.102c-.243 1.353 1.456 2.038 2.099.846Z" fill="#ffd228" fill-rule="evenodd" data-name="Path 95"/><path d="M249.602 137.86c-.77.066-1.282-.841-.873-1.547l30.844-53.123c-.459-.391-1.181-.416-1.619.205l-41.252 58.618c-1.202 1.708.07 4.135 2.05 3.911l30.768-3.486-10.087 56.101c-.136.757.338 1.29.893 1.417l17.285-58.878c.81-2.76-1.234-5.525-3.914-5.294l-24.095 2.075Z" fill="#f7aa00" fill-rule="evenodd" data-name="Path 96"/></g></svg>